<svg width="147" height="777" viewBox="0 0 147 777" fill="none" xmlns="http://www.w3.org/2000/svg">
    <path d="M146 235L146 235.75L146.75 235.75L146.75 235L146 235ZM146 0.999994L146.75 0.999994L146.75 0.249994L146 0.249994L146 0.999994ZM6.5 235L6.5 234.25L5.75 234.25L5.75 235L6.5 235ZM5.96967 305.03C6.26256 305.323 6.73744 305.323 7.03033 305.03L11.8033 300.257C12.0962 299.964 12.0962 299.49 11.8033 299.197C11.5104 298.904 11.0355 298.904 10.7426 299.197L6.5 303.439L2.25736 299.197C1.96447 298.904 1.48959 298.904 1.1967 299.197C0.903806 299.49 0.903806 299.964 1.1967 300.257L5.96967 305.03ZM90.5 235.75L146 235.75L146 234.25L90.5 234.25L90.5 235.75ZM146.75 235L146.75 0.999994L145.25 0.999994L145.25 235L146.75 235ZM146 0.249994L90 0.249996L90 1.75L146 1.74999L146 0.249994ZM90.5 234.25L6.5 234.25L6.5 235.75L90.5 235.75L90.5 234.25ZM5.75 235L5.75 304.5L7.25 304.5L7.25 235L5.75 235Z" fill="white" fill-opacity="0.64"/>
    <path d="M6.14645 776.854C6.34171 777.049 6.65829 777.049 6.85355 776.854L10.0355 773.672C10.2308 773.476 10.2308 773.16 10.0355 772.964C9.84027 772.769 9.52369 772.769 9.32843 772.964L6.5 775.793L3.67157 772.964C3.47631 772.769 3.15973 772.769 2.96447 772.964C2.7692 773.16 2.7692 773.476 2.96447 773.672L6.14645 776.854ZM6 633V776.5H7V633H6Z" fill="white"/>
</svg>
