<svg width="260" height="62" viewBox="0 0 260 62" fill="none" xmlns="http://www.w3.org/2000/svg">
<g clip-path="url(#clip0_26_450)">
<path d="M19.7633 25.7117L18.1757 27.3408C18.1069 27.4118 18.0437 27.4872 17.9838 27.5652C17.9657 27.5882 17.9493 27.613 17.932 27.6369C17.8907 27.6944 17.8519 27.7535 17.8156 27.8144C17.8001 27.8405 17.784 27.8666 17.7696 27.8934C17.7293 27.9661 17.6929 28.0409 17.6603 28.1176C17.6545 28.131 17.6476 28.1432 17.6423 28.1564C17.6052 28.2472 17.5736 28.3405 17.5472 28.4355C17.5453 28.4422 17.5437 28.4495 17.5423 28.4564C18.2647 28.6673 18.9268 29.0659 19.4668 29.6236C20.2528 30.432 20.7106 31.5073 20.7559 32.6519C20.7559 32.6551 20.7568 32.6579 20.7568 32.661C20.7568 32.6629 20.7568 32.6644 20.7568 32.666C20.7568 32.6666 20.7568 32.6668 20.7568 32.6668C20.8106 33.9373 20.338 35.186 19.4597 36.0862L17.3965 38.206C17.3931 38.2096 17.3884 38.2119 17.385 38.2158L11.5057 44.2502C10.6684 45.1114 9.55405 45.5861 8.36803 45.5861C7.18043 45.5861 6.0634 45.1097 5.22272 44.2446C4.38468 43.3812 3.92397 42.2325 3.92542 41.0101C3.92661 39.7878 4.38931 38.6402 5.22801 37.7785L10.6791 32.183C10.6642 32.1345 10.6539 32.0849 10.6396 32.036C10.6113 31.9386 10.5864 31.8401 10.5609 31.7414C10.5131 31.5589 10.4703 31.3748 10.4327 31.1891C10.4116 31.0849 10.3913 30.9808 10.3736 30.8761C10.3407 30.6816 10.3154 30.4856 10.2935 30.2883C10.2832 30.196 10.2701 30.1043 10.2624 30.0113C10.2384 29.7222 10.2234 29.4313 10.2234 29.1378C10.2237 28.9196 10.2322 28.7014 10.2464 28.4839C10.2509 28.4109 10.2598 28.3382 10.2659 28.2655C10.2786 28.1207 10.2916 27.9759 10.3101 27.8325C10.3131 27.8091 10.3142 27.7855 10.3173 27.7622L2.89813 35.3773C-0.123475 38.4793 -0.128365 43.5318 2.88769 46.6408C4.3494 48.1485 6.29561 48.9791 8.36803 48.9791C10.4327 48.9791 12.3742 48.1526 13.8357 46.6518L21.7905 38.4894C22.3349 37.9318 22.7929 37.2975 23.1529 36.6036C24.0215 34.925 24.2731 33.0027 23.8895 31.1721C23.8009 30.7497 23.6784 30.3318 23.5221 29.9232C23.134 28.9099 22.5558 28.0023 21.8026 27.2259C21.2001 26.604 20.5163 26.0967 19.7633 25.7117Z" fill="#21211F"/>
<path d="M19.7633 25.7117L18.1757 27.3408C18.1069 27.4118 18.0437 27.4872 17.9838 27.5652C17.9657 27.5882 17.9493 27.613 17.932 27.6369C17.8907 27.6944 17.8519 27.7535 17.8156 27.8144C17.8001 27.8405 17.784 27.8666 17.7696 27.8934C17.7293 27.9661 17.6929 28.0409 17.6603 28.1176C17.6545 28.131 17.6476 28.1432 17.6423 28.1564C17.6052 28.2472 17.5736 28.3405 17.5472 28.4355C17.5453 28.4422 17.5437 28.4495 17.5423 28.4564C18.2647 28.6673 18.9268 29.0659 19.4668 29.6236C20.2528 30.432 20.7106 31.5073 20.7559 32.6519C20.7559 32.6551 20.7568 32.6579 20.7568 32.661C20.7568 32.6629 20.7568 32.6644 20.7568 32.666C20.7568 32.6666 20.7568 32.6668 20.7568 32.6668C20.8106 33.9373 20.338 35.186 19.4597 36.0862L17.3965 38.206C17.3931 38.2096 17.3884 38.2119 17.385 38.2158L11.5057 44.2502C10.6684 45.1114 9.55405 45.5861 8.36803 45.5861C7.18043 45.5861 6.0634 45.1097 5.22272 44.2446C4.38468 43.3812 3.92397 42.2325 3.92542 41.0101C3.92661 39.7878 4.38931 38.6402 5.22801 37.7785L10.6791 32.183C10.6642 32.1345 10.6539 32.0849 10.6396 32.036C10.6113 31.9386 10.5864 31.8401 10.5609 31.7414C10.5131 31.5589 10.4703 31.3748 10.4327 31.1891C10.4116 31.0849 10.3913 30.9808 10.3736 30.8761C10.3407 30.6816 10.3154 30.4856 10.2935 30.2883C10.2832 30.196 10.2701 30.1043 10.2624 30.0113C10.2384 29.7222 10.2234 29.4313 10.2234 29.1378C10.2237 28.9196 10.2322 28.7014 10.2464 28.4839C10.2509 28.4109 10.2598 28.3382 10.2659 28.2655C10.2786 28.1207 10.2916 27.9759 10.3101 27.8325C10.3131 27.8091 10.3142 27.7855 10.3173 27.7622L2.89813 35.3773C-0.123475 38.4793 -0.128365 43.5318 2.88769 46.6408C4.3494 48.1485 6.29561 48.9791 8.36803 48.9791C10.4327 48.9791 12.3742 48.1526 13.8357 46.6518L21.7905 38.4894C22.3349 37.9318 22.7929 37.2975 23.1529 36.6036C24.0215 34.925 24.2731 33.0027 23.8895 31.1721C23.8009 30.7497 23.6784 30.3318 23.5221 29.9232C23.134 28.9099 22.5558 28.0023 21.8026 27.2259C21.2001 26.604 20.5163 26.0967 19.7633 25.7117Z" fill="url(#paint0_linear_26_450)"/>
<path d="M12.2062 28.5994C12.1939 28.779 12.1865 28.959 12.1863 29.1395C12.1863 30.1574 12.3675 31.1457 12.7248 32.0755C13.1115 33.0852 13.6912 33.9929 14.4491 34.774C15.0498 35.3954 15.733 35.9028 16.4859 36.2874L18.0735 34.6574C18.1433 34.5859 18.207 34.5095 18.2672 34.4309C18.2862 34.4066 18.3031 34.3809 18.3207 34.356C18.3602 34.2996 18.3988 34.2417 18.4339 34.1825C18.4515 34.1522 18.4688 34.1218 18.4854 34.0911C18.5172 34.0319 18.5463 33.9716 18.5734 33.91C18.5869 33.8797 18.6011 33.8498 18.613 33.819C18.6445 33.7406 18.6712 33.6605 18.6948 33.5792C18.6983 33.567 18.7033 33.5552 18.7063 33.543C17.9867 33.3321 17.3254 32.9346 16.784 32.3778C16.0081 31.5797 15.5528 30.5246 15.4953 29.3998V29.3992C15.4945 29.3863 15.4922 29.3735 15.4919 29.3602C15.4861 29.2888 15.4849 29.2154 15.4849 29.1448C15.4879 27.9213 15.951 26.7738 16.7891 25.9122L24.7443 17.7495C25.5849 16.8882 26.6999 16.4143 27.884 16.4143C29.0715 16.4143 30.1884 16.8906 31.0291 17.7554C32.7587 19.5407 32.7546 22.4396 31.0214 24.2191L25.5678 29.8172C25.5877 29.8815 25.6033 29.9462 25.6218 30.0109C25.6489 30.1043 25.6764 30.1978 25.7003 30.2925C25.7217 30.3749 25.7402 30.4581 25.7593 30.5409C25.7819 30.6377 25.8042 30.7345 25.8239 30.8319C25.8401 30.9136 25.8543 30.9968 25.8688 31.0791C25.8861 31.1776 25.9031 31.2758 25.9176 31.3743C25.9295 31.4573 25.9395 31.5405 25.9494 31.6235C25.9612 31.7222 25.9727 31.8202 25.9822 31.9189C25.9896 32.0029 25.9954 32.0868 26.0009 32.1708C26.0072 32.2687 26.0133 32.3664 26.0171 32.4642C26.0204 32.5498 26.0217 32.6349 26.0232 32.7205C26.0241 32.8166 26.0245 32.9133 26.0232 33.0095C26.0217 33.0963 26.0194 33.1826 26.0157 33.269C26.012 33.3641 26.0069 33.4595 26.0005 33.5544C25.9944 33.6415 25.987 33.7282 25.9788 33.8155C25.9701 33.9097 25.9599 34.0035 25.9486 34.0969C25.943 34.1427 25.9399 34.1885 25.9338 34.2338L33.3514 26.6203C34.8134 25.1212 35.6189 23.1227 35.6213 20.9922C35.6237 18.8621 34.8222 16.8618 33.3646 15.3591C31.9024 13.8512 29.9563 13.0209 27.884 13.0209C25.8185 13.0209 23.8757 13.8474 22.4145 15.3487L14.4595 23.5104C13.914 24.072 13.4536 24.7063 13.0925 25.3958C13.0925 25.3961 13.0921 25.3961 13.0921 25.3965C12.5826 26.3782 12.2809 27.4761 12.2062 28.5994Z" fill="#21211F"/>
<path d="M12.2062 28.5994C12.1939 28.779 12.1865 28.959 12.1863 29.1395C12.1863 30.1574 12.3675 31.1457 12.7248 32.0755C13.1115 33.0852 13.6912 33.9929 14.4491 34.774C15.0498 35.3954 15.733 35.9028 16.4859 36.2874L18.0735 34.6574C18.1433 34.5859 18.207 34.5095 18.2672 34.4309C18.2862 34.4066 18.3031 34.3809 18.3207 34.356C18.3602 34.2996 18.3988 34.2417 18.4339 34.1825C18.4515 34.1522 18.4688 34.1218 18.4854 34.0911C18.5172 34.0319 18.5463 33.9716 18.5734 33.91C18.5869 33.8797 18.6011 33.8498 18.613 33.819C18.6445 33.7406 18.6712 33.6605 18.6948 33.5792C18.6983 33.567 18.7033 33.5552 18.7063 33.543C17.9867 33.3321 17.3254 32.9346 16.784 32.3778C16.0081 31.5797 15.5528 30.5246 15.4953 29.3998V29.3992C15.4945 29.3863 15.4922 29.3735 15.4919 29.3602C15.4861 29.2888 15.4849 29.2154 15.4849 29.1448C15.4879 27.9213 15.951 26.7738 16.7891 25.9122L24.7443 17.7495C25.5849 16.8882 26.6999 16.4143 27.884 16.4143C29.0715 16.4143 30.1884 16.8906 31.0291 17.7554C32.7587 19.5407 32.7546 22.4396 31.0214 24.2191L25.5678 29.8172C25.5877 29.8815 25.6033 29.9462 25.6218 30.0109C25.6489 30.1043 25.6764 30.1978 25.7003 30.2925C25.7217 30.3749 25.7402 30.4581 25.7593 30.5409C25.7819 30.6377 25.8042 30.7345 25.8239 30.8319C25.8401 30.9136 25.8543 30.9968 25.8688 31.0791C25.8861 31.1776 25.9031 31.2758 25.9176 31.3743C25.9295 31.4573 25.9395 31.5405 25.9494 31.6235C25.9612 31.7222 25.9727 31.8202 25.9822 31.9189C25.9896 32.0029 25.9954 32.0868 26.0009 32.1708C26.0072 32.2687 26.0133 32.3664 26.0171 32.4642C26.0204 32.5498 26.0217 32.6349 26.0232 32.7205C26.0241 32.8166 26.0245 32.9133 26.0232 33.0095C26.0217 33.0963 26.0194 33.1826 26.0157 33.269C26.012 33.3641 26.0069 33.4595 26.0005 33.5544C25.9944 33.6415 25.987 33.7282 25.9788 33.8155C25.9701 33.9097 25.9599 34.0035 25.9486 34.0969C25.943 34.1427 25.9399 34.1885 25.9338 34.2338L33.3514 26.6203C34.8134 25.1212 35.6189 23.1227 35.6213 20.9922C35.6237 18.8621 34.8222 16.8618 33.3646 15.3591C31.9024 13.8512 29.9563 13.0209 27.884 13.0209C25.8185 13.0209 23.8757 13.8474 22.4145 15.3487L14.4595 23.5104C13.914 24.072 13.4536 24.7063 13.0925 25.3958C13.0925 25.3961 13.0921 25.3961 13.0921 25.3965C12.5826 26.3782 12.2809 27.4761 12.2062 28.5994Z" fill="url(#paint1_linear_26_450)"/>
</g>
<path d="M61.8719 47.3255C58.8649 47.3255 56.1214 46.628 53.6414 45.233C51.1614 43.807 49.1929 41.8385 47.7359 39.3275C46.3099 36.7855 45.5969 33.9335 45.5969 30.7715C45.5969 27.6095 46.3099 24.773 47.7359 22.262C49.1929 19.72 51.1614 17.7515 53.6414 16.3565C56.1214 14.9305 58.8649 14.2175 61.8719 14.2175C64.9099 14.2175 67.6689 14.9305 70.1489 16.3565C72.6289 17.7515 74.5819 19.7045 76.0079 22.2155C77.4339 24.7265 78.1469 27.5785 78.1469 30.7715C78.1469 33.9645 77.4339 36.8165 76.0079 39.3275C74.5819 41.8385 72.6289 43.807 70.1489 45.233C67.6689 46.628 64.9099 47.3255 61.8719 47.3255ZM61.8719 43.652C64.1349 43.652 66.1654 43.125 67.9634 42.071C69.7924 41.017 71.2184 39.5135 72.2414 37.5605C73.2954 35.6075 73.8224 33.3445 73.8224 30.7715C73.8224 28.1675 73.2954 25.9045 72.2414 23.9825C71.2184 22.0295 69.8079 20.526 68.0099 19.472C66.2119 18.418 64.1659 17.891 61.8719 17.891C59.5779 17.891 57.5319 18.418 55.7339 19.472C53.9359 20.526 52.5099 22.0295 51.4559 23.9825C50.4329 25.9045 49.9214 28.1675 49.9214 30.7715C49.9214 33.3445 50.4329 35.6075 51.4559 37.5605C52.5099 39.5135 53.9359 41.017 55.7339 42.071C57.5629 43.125 59.6089 43.652 61.8719 43.652Z" fill="url(#paint2_linear_26_450)"/>
<path d="M109.59 47H105.358L88.3393 21.1925V47H84.1078V14.543H88.3393L105.358 40.304V14.543H109.59V47Z" fill="url(#paint3_linear_26_450)"/>
<path d="M115.415 30.7715C115.415 27.6095 116.128 24.773 117.554 22.262C118.98 19.72 120.917 17.736 123.366 16.31C125.846 14.884 128.59 14.171 131.597 14.171C135.131 14.171 138.215 15.0235 140.85 16.7285C143.485 18.4335 145.407 20.8515 146.616 23.9825H141.548C140.649 22.0295 139.347 20.526 137.642 19.472C135.968 18.418 133.953 17.891 131.597 17.891C129.334 17.891 127.303 18.418 125.505 19.472C123.707 20.526 122.297 22.0295 121.274 23.9825C120.251 25.9045 119.739 28.1675 119.739 30.7715C119.739 33.3445 120.251 35.6075 121.274 37.5605C122.297 39.4825 123.707 40.9705 125.505 42.0245C127.303 43.0785 129.334 43.6055 131.597 43.6055C133.953 43.6055 135.968 43.094 137.642 42.071C139.347 41.017 140.649 39.5135 141.548 37.5605H146.616C145.407 40.6605 143.485 43.063 140.85 44.768C138.215 46.442 135.131 47.279 131.597 47.279C128.59 47.279 125.846 46.5815 123.366 45.1865C120.917 43.7605 118.98 41.792 117.554 39.281C116.128 36.77 115.415 33.9335 115.415 30.7715Z" fill="url(#paint4_linear_26_450)"/>
<path d="M178.328 14.5895V47H174.097V32.306H157.589V47H153.358V14.5895H157.589V28.8185H174.097V14.5895H178.328Z" fill="url(#paint5_linear_26_450)"/>
<path d="M205.447 39.7925H191.311L188.707 47H184.243L195.961 14.7755H200.843L212.515 47H208.051L205.447 39.7925ZM204.238 36.3515L198.379 19.9835L192.52 36.3515H204.238Z" fill="url(#paint6_linear_26_450)"/>
<path d="M222.465 14.5895V47H218.234V14.5895H222.465Z" fill="url(#paint7_linear_26_450)"/>
<path d="M255.59 47H251.358L234.339 21.1925V47H230.108V14.543H234.339L251.358 40.304V14.543H255.59V47Z" fill="url(#paint8_linear_26_450)"/>
<defs>
<linearGradient id="paint0_linear_26_450" x1="0.0354938" y1="30.0744" x2="26.4319" y2="32.0338" gradientUnits="userSpaceOnUse">
<stop stop-color="white" stop-opacity="0.4"/>
<stop offset="0.514999" stop-color="white"/>
<stop offset="1" stop-color="white" stop-opacity="0.4"/>
</linearGradient>
<linearGradient id="paint1_linear_26_450" x1="11.593" y1="17.3833" x2="37.9894" y2="19.3429" gradientUnits="userSpaceOnUse">
<stop stop-color="white" stop-opacity="0.4"/>
<stop offset="0.514999" stop-color="white"/>
<stop offset="1" stop-color="white" stop-opacity="0.4"/>
</linearGradient>
<linearGradient id="paint2_linear_26_450" x1="42.4383" y1="11.625" x2="84.2626" y2="13.4646" gradientUnits="userSpaceOnUse">
<stop stop-color="white" stop-opacity="0.4"/>
<stop offset="0.514999" stop-color="white"/>
<stop offset="1" stop-color="white" stop-opacity="0.4"/>
</linearGradient>
<linearGradient id="paint3_linear_26_450" x1="79.5396" y1="11.625" x2="116.857" y2="13.0889" gradientUnits="userSpaceOnUse">
<stop stop-color="white" stop-opacity="0.4"/>
<stop offset="0.514999" stop-color="white"/>
<stop offset="1" stop-color="white" stop-opacity="0.4"/>
</linearGradient>
<linearGradient id="paint4_linear_26_450" x1="112.464" y1="11.625" x2="153.162" y2="13.3667" gradientUnits="userSpaceOnUse">
<stop stop-color="white" stop-opacity="0.4"/>
<stop offset="0.514999" stop-color="white"/>
<stop offset="1" stop-color="white" stop-opacity="0.4"/>
</linearGradient>
<linearGradient id="paint5_linear_26_450" x1="148.54" y1="11.625" x2="185.857" y2="13.0889" gradientUnits="userSpaceOnUse">
<stop stop-color="white" stop-opacity="0.4"/>
<stop offset="0.514999" stop-color="white"/>
<stop offset="1" stop-color="white" stop-opacity="0.4"/>
</linearGradient>
<linearGradient id="paint6_linear_26_450" x1="181.565" y1="11.625" x2="217.755" y2="13.0017" gradientUnits="userSpaceOnUse">
<stop stop-color="white" stop-opacity="0.4"/>
<stop offset="0.514999" stop-color="white"/>
<stop offset="1" stop-color="white" stop-opacity="0.4"/>
</linearGradient>
<linearGradient id="paint7_linear_26_450" x1="214.071" y1="11.625" x2="227.659" y2="11.8188" gradientUnits="userSpaceOnUse">
<stop stop-color="white" stop-opacity="0.4"/>
<stop offset="0.514999" stop-color="white"/>
<stop offset="1" stop-color="white" stop-opacity="0.4"/>
</linearGradient>
<linearGradient id="paint8_linear_26_450" x1="225.54" y1="11.625" x2="262.857" y2="13.0889" gradientUnits="userSpaceOnUse">
<stop stop-color="white" stop-opacity="0.4"/>
<stop offset="0.514999" stop-color="white"/>
<stop offset="1" stop-color="white" stop-opacity="0.4"/>
</linearGradient>
<clipPath id="clip0_26_450">
<rect width="35" height="36" fill="white" transform="translate(0.625 13)"/>
</clipPath>
</defs>
</svg>
