<svg width="21" height="18" viewBox="0 0 21 18" fill="none" xmlns="http://www.w3.org/2000/svg">
<path fill-rule="evenodd" clip-rule="evenodd" d="M18.54 0.51611C18.7858 0.414629 19.0542 0.380315 19.3176 0.416682C19.581 0.453049 19.83 0.558789 20.0391 0.723071C20.2482 0.887353 20.4099 1.10427 20.5076 1.3516C20.6053 1.59893 20.6354 1.86778 20.595 2.13061C20.0123 5.92011 18.944 12.8641 18.3769 16.5501C18.3377 16.8052 18.2333 17.0458 18.0739 17.2487C17.9144 17.4516 17.7053 17.61 17.4668 17.7085C17.2283 17.807 16.9684 17.8423 16.7122 17.8109C16.4561 17.7796 16.2123 17.6827 16.0046 17.5296C13.9985 16.0516 10.9908 13.8356 9.46372 12.7101C9.34588 12.6233 9.24854 12.5116 9.17858 12.383C9.10862 12.2544 9.06774 12.1121 9.05883 11.9659C9.04992 11.8198 9.0732 11.6735 9.12703 11.5374C9.18085 11.4013 9.2639 11.2786 9.37032 11.1781C10.7696 9.85661 13.5565 7.22461 15.4739 5.41361C15.5191 5.37069 15.5466 5.31244 15.5511 5.25029C15.5555 5.18815 15.5366 5.12657 15.498 5.07764C15.4595 5.02871 15.404 4.99594 15.3425 4.98576C15.2811 4.97558 15.218 4.98872 15.1657 5.02261C12.7072 6.62611 8.94187 9.08161 7.09647 10.2851C6.75063 10.5107 6.36195 10.6624 5.95475 10.7308C5.54756 10.7992 5.13063 10.7828 4.73007 10.6826C3.71392 10.4286 2.24822 10.0621 0.943874 9.73611C0.739661 9.68509 0.556756 9.57092 0.421211 9.40988C0.285666 9.24884 0.204393 9.04914 0.188968 8.83921C0.173544 8.62929 0.224755 8.41985 0.335306 8.24073C0.445858 8.06161 0.610112 7.92194 0.804674 7.84161C5.34527 5.96611 14.2312 2.29611 18.54 0.51611Z" fill="white"/>
</svg>
