<svg width="147" height="777" fill="none" xmlns="http://www.w3.org/2000/svg"><path d="M146 235v.75h.75V235H146Zm0-234h.75V.25H146V1ZM6.5 235v-.75h-.75v.75h.75Zm-.53 70.03a.75.75 0 0 0 1.06 0l4.773-4.773a.75.75 0 1 0-1.06-1.06L6.5 303.439l-4.243-4.242a.75.75 0 0 0-1.06 1.06l4.773 4.773Zm84.53-69.28H146v-1.5H90.5v1.5Zm56.25-.75V1h-1.5v234h1.5ZM146 .25H90v1.5h56V.25Zm-55.5 234h-84v1.5h84v-1.5ZM5.75 235v69.5h1.5V235h-1.5Z" fill="#fff" fill-opacity=".64"/><path d="M6.146 776.854a.5.5 0 0 0 .708 0l3.182-3.182a.501.501 0 0 0-.708-.708L6.5 775.793l-2.828-2.829a.5.5 0 0 0-.708.708l3.182 3.182ZM6 633v143.5h1V633H6Z" fill="#fff"/></svg>