<svg width="904" height="427" fill="none" xmlns="http://www.w3.org/2000/svg"><path d="M449 425.875h-.75v.75h.75v-.75Zm448.5 0v.75h.75v-.75h-.75Zm.53-56.629a.749.749 0 0 0-1.06 0l-4.773 4.773a.749.749 0 1 0 1.06 1.06l4.243-4.242 4.243 4.242a.749.749 0 1 0 1.06-1.06l-4.773-4.773Zm-449.78 1.031v55.598h1.5v-55.598h-1.5Zm.75 56.348h448.5v-1.5H449v1.5Zm449.25-.75v-56.099h-1.5v56.099h1.5ZM448.97 57.128a.75.75 0 0 0 1.06 0l4.773-4.773a.75.75 0 1 0-1.06-1.06l-4.243 4.242-4.243-4.242a.75.75 0 1 0-1.06 1.06l4.773 4.773ZM449.5 1h.75V.25h-.75V1ZM1 1V.25H.25V1H1Zm449.25 55.598V1h-1.5v55.598h1.5ZM449.5.25H1v1.5h448.5V.25ZM.25 1v56.099h1.5V1H.25Z" fill="#fff" fill-opacity=".64"/></svg>