<svg width="260" height="62" fill="none" xmlns="http://www.w3.org/2000/svg"><g clip-path="url(#a)"><path d="m19.763 25.712-1.587 1.629a2.57 2.57 0 0 0-.192.224c-.018.023-.035.048-.052.072-.041.057-.08.116-.116.177a2.392 2.392 0 0 0-.155.303l-.019.04a2.526 2.526 0 0 0-.1.3 4.39 4.39 0 0 1 1.925 1.167 4.593 4.593 0 0 1 1.289 3.028v.014a4.634 4.634 0 0 1-1.296 3.42l-2.064 2.12-.011.01-5.88 6.034a4.357 4.357 0 0 1-6.283-.006 4.606 4.606 0 0 1-1.297-3.234 4.61 4.61 0 0 1 1.303-3.231l5.451-5.596c-.015-.048-.025-.098-.04-.147-.028-.097-.053-.196-.078-.295a10.055 10.055 0 0 1-.268-1.453c-.01-.092-.023-.184-.03-.277-.025-.289-.04-.58-.04-.873 0-.218.01-.437.023-.654.005-.073.014-.146.02-.219.013-.144.026-.29.044-.433l.007-.07-7.419 7.615c-3.021 3.102-3.026 8.155-.01 11.264 1.461 1.508 3.408 2.338 5.48 2.338 2.065 0 4.006-.826 5.468-2.327l7.955-8.163a7.911 7.911 0 0 0 1.362-1.885 8.177 8.177 0 0 0 .37-6.68 7.919 7.919 0 0 0-3.76-4.212Z" fill="#21211F"/><path d="m19.763 25.712-1.587 1.629a2.57 2.57 0 0 0-.192.224c-.018.023-.035.048-.052.072-.041.057-.08.116-.116.177a2.392 2.392 0 0 0-.155.303l-.019.04a2.526 2.526 0 0 0-.1.3 4.39 4.39 0 0 1 1.925 1.167 4.593 4.593 0 0 1 1.289 3.028v.014a4.634 4.634 0 0 1-1.296 3.42l-2.064 2.12-.011.01-5.88 6.034a4.357 4.357 0 0 1-6.283-.006 4.606 4.606 0 0 1-1.297-3.234 4.61 4.61 0 0 1 1.303-3.231l5.451-5.596c-.015-.048-.025-.098-.04-.147-.028-.097-.053-.196-.078-.295a10.055 10.055 0 0 1-.268-1.453c-.01-.092-.023-.184-.03-.277-.025-.289-.04-.58-.04-.873 0-.218.01-.437.023-.654.005-.073.014-.146.02-.219.013-.144.026-.29.044-.433l.007-.07-7.419 7.615c-3.021 3.102-3.026 8.155-.01 11.264 1.461 1.508 3.408 2.338 5.48 2.338 2.065 0 4.006-.826 5.468-2.327l7.955-8.163a7.911 7.911 0 0 0 1.362-1.885 8.177 8.177 0 0 0 .37-6.68 7.919 7.919 0 0 0-3.76-4.212Z" fill="url(#b)"/><path d="M12.206 28.6a8.154 8.154 0 0 0 .519 3.476 7.924 7.924 0 0 0 1.724 2.698 7.695 7.695 0 0 0 2.037 1.513l1.587-1.63c.07-.071.134-.147.194-.226.02-.024.036-.05.054-.075a2.744 2.744 0 0 0 .164-.265c.032-.06.061-.12.088-.181a2.545 2.545 0 0 0 .121-.33c.004-.013.01-.025.012-.037a4.412 4.412 0 0 1-1.922-1.165 4.596 4.596 0 0 1-1.289-2.978c0-.014-.003-.026-.003-.04a4.622 4.622 0 0 1 1.297-3.448l7.955-8.162a4.36 4.36 0 0 1 6.285.005c1.73 1.786 1.726 4.685-.008 6.464l-5.453 5.598c.02.064.035.13.054.194.027.093.054.187.078.282.022.082.04.165.06.248.022.097.044.194.064.29l.045.248c.017.099.034.197.049.295.012.083.021.167.031.25.012.098.024.196.033.295a11.225 11.225 0 0 1 .035.545 12.655 12.655 0 0 1-.001.805 10.06 10.06 0 0 1-.067.828l-.015.137 7.417-7.614c1.462-1.499 2.268-3.497 2.27-5.628.003-2.13-.799-4.13-2.256-5.633-1.463-1.508-3.409-2.338-5.481-2.338-2.066 0-4.008.826-5.47 2.328L14.46 23.51a8.1 8.1 0 0 0-1.367 1.886 8.144 8.144 0 0 0-.886 3.203Z" fill="#21211F"/><path d="M12.206 28.6a8.154 8.154 0 0 0 .519 3.476 7.924 7.924 0 0 0 1.724 2.698 7.695 7.695 0 0 0 2.037 1.513l1.587-1.63c.07-.071.134-.147.194-.226.02-.024.036-.05.054-.075a2.744 2.744 0 0 0 .164-.265c.032-.06.061-.12.088-.181a2.545 2.545 0 0 0 .121-.33c.004-.013.01-.025.012-.037a4.412 4.412 0 0 1-1.922-1.165 4.596 4.596 0 0 1-1.289-2.978c0-.014-.003-.026-.003-.04a4.622 4.622 0 0 1 1.297-3.448l7.955-8.162a4.36 4.36 0 0 1 6.285.005c1.73 1.786 1.726 4.685-.008 6.464l-5.453 5.598c.02.064.035.13.054.194.027.093.054.187.078.282.022.082.04.165.06.248.022.097.044.194.064.29l.045.248c.017.099.034.197.049.295.012.083.021.167.031.25.012.098.024.196.033.295a11.225 11.225 0 0 1 .035.545 12.655 12.655 0 0 1-.001.805 10.06 10.06 0 0 1-.067.828l-.015.137 7.417-7.614c1.462-1.499 2.268-3.497 2.27-5.628.003-2.13-.799-4.13-2.256-5.633-1.463-1.508-3.409-2.338-5.481-2.338-2.066 0-4.008.826-5.47 2.328L14.46 23.51a8.1 8.1 0 0 0-1.367 1.886 8.144 8.144 0 0 0-.886 3.203Z" fill="url(#c)"/></g><path d="M61.872 47.325c-3.007 0-5.75-.697-8.23-2.092-2.48-1.426-4.45-3.394-5.906-5.905-1.426-2.543-2.14-5.395-2.14-8.557 0-3.162.714-5.998 2.14-8.509 1.457-2.542 3.425-4.51 5.905-5.905 2.48-1.426 5.224-2.14 8.23-2.14 3.039 0 5.798.713 8.278 2.14 2.48 1.395 4.433 3.348 5.859 5.858 1.426 2.512 2.139 5.363 2.139 8.556 0 3.194-.713 6.045-2.14 8.556-1.425 2.512-3.378 4.48-5.858 5.906-2.48 1.395-5.24 2.093-8.277 2.093Zm0-3.673c2.263 0 4.293-.527 6.091-1.581 1.83-1.054 3.255-2.557 4.278-4.51 1.054-1.953 1.581-4.217 1.581-6.79 0-2.604-.527-4.867-1.58-6.788-1.024-1.954-2.434-3.457-4.232-4.511-1.798-1.054-3.844-1.581-6.138-1.581s-4.34.527-6.138 1.581c-1.798 1.054-3.224 2.557-4.278 4.51-1.023 1.922-1.535 4.186-1.535 6.79 0 2.572.512 4.836 1.535 6.788 1.054 1.953 2.48 3.457 4.278 4.511 1.829 1.054 3.875 1.581 6.138 1.581Z" fill="url(#d)"/><path d="M109.59 47h-4.232L88.339 21.192V47h-4.231V14.543h4.231l17.019 25.761V14.543h4.232V47Z" fill="url(#e)"/><path d="M115.415 30.771c0-3.162.713-5.998 2.139-8.509 1.426-2.542 3.363-4.526 5.812-5.952 2.48-1.426 5.224-2.139 8.231-2.139 3.534 0 6.618.853 9.253 2.558 2.635 1.704 4.557 4.123 5.766 7.254h-5.068c-.899-1.954-2.201-3.457-3.906-4.511-1.674-1.054-3.689-1.581-6.045-1.581-2.263 0-4.294.527-6.092 1.581-1.798 1.054-3.208 2.557-4.231 4.51-1.023 1.922-1.535 4.186-1.535 6.79 0 2.572.512 4.836 1.535 6.788 1.023 1.922 2.433 3.41 4.231 4.465 1.798 1.053 3.829 1.58 6.092 1.58 2.356 0 4.371-.511 6.045-1.534 1.705-1.054 3.007-2.557 3.906-4.51h5.068c-1.209 3.1-3.131 5.502-5.766 7.207-2.635 1.674-5.719 2.511-9.253 2.511-3.007 0-5.751-.698-8.231-2.093-2.449-1.425-4.386-3.394-5.812-5.905-1.426-2.511-2.139-5.347-2.139-8.51Z" fill="url(#f)"/><path d="M178.328 14.59V47h-4.231V32.306h-16.508V47h-4.231V14.59h4.231v14.229h16.508v-14.23h4.231Z" fill="url(#g)"/><path d="M205.447 39.792h-14.136L188.707 47h-4.464l11.718-32.224h4.882L212.515 47h-4.464l-2.604-7.208Zm-1.209-3.44-5.859-16.368-5.859 16.367h11.718Z" fill="url(#h)"/><path d="M222.465 14.59V47h-4.231V14.59h4.231Z" fill="url(#i)"/><path d="M255.59 47h-4.232l-17.019-25.808V47h-4.231V14.543h4.231l17.019 25.761V14.543h4.232V47Z" fill="url(#j)"/><defs><linearGradient id="b" x1=".035" y1="30.074" x2="26.432" y2="32.034" gradientUnits="userSpaceOnUse"><stop stop-color="#fff" stop-opacity=".4"/><stop offset=".515" stop-color="#fff"/><stop offset="1" stop-color="#fff" stop-opacity=".4"/></linearGradient><linearGradient id="c" x1="11.593" y1="17.383" x2="37.989" y2="19.343" gradientUnits="userSpaceOnUse"><stop stop-color="#fff" stop-opacity=".4"/><stop offset=".515" stop-color="#fff"/><stop offset="1" stop-color="#fff" stop-opacity=".4"/></linearGradient><linearGradient id="d" x1="42.438" y1="11.625" x2="84.263" y2="13.465" gradientUnits="userSpaceOnUse"><stop stop-color="#fff" stop-opacity=".4"/><stop offset=".515" stop-color="#fff"/><stop offset="1" stop-color="#fff" stop-opacity=".4"/></linearGradient><linearGradient id="e" x1="79.54" y1="11.625" x2="116.857" y2="13.089" gradientUnits="userSpaceOnUse"><stop stop-color="#fff" stop-opacity=".4"/><stop offset=".515" stop-color="#fff"/><stop offset="1" stop-color="#fff" stop-opacity=".4"/></linearGradient><linearGradient id="f" x1="112.464" y1="11.625" x2="153.162" y2="13.367" gradientUnits="userSpaceOnUse"><stop stop-color="#fff" stop-opacity=".4"/><stop offset=".515" stop-color="#fff"/><stop offset="1" stop-color="#fff" stop-opacity=".4"/></linearGradient><linearGradient id="g" x1="148.54" y1="11.625" x2="185.857" y2="13.089" gradientUnits="userSpaceOnUse"><stop stop-color="#fff" stop-opacity=".4"/><stop offset=".515" stop-color="#fff"/><stop offset="1" stop-color="#fff" stop-opacity=".4"/></linearGradient><linearGradient id="h" x1="181.565" y1="11.625" x2="217.755" y2="13.002" gradientUnits="userSpaceOnUse"><stop stop-color="#fff" stop-opacity=".4"/><stop offset=".515" stop-color="#fff"/><stop offset="1" stop-color="#fff" stop-opacity=".4"/></linearGradient><linearGradient id="i" x1="214.071" y1="11.625" x2="227.659" y2="11.819" gradientUnits="userSpaceOnUse"><stop stop-color="#fff" stop-opacity=".4"/><stop offset=".515" stop-color="#fff"/><stop offset="1" stop-color="#fff" stop-opacity=".4"/></linearGradient><linearGradient id="j" x1="225.54" y1="11.625" x2="262.857" y2="13.089" gradientUnits="userSpaceOnUse"><stop stop-color="#fff" stop-opacity=".4"/><stop offset=".515" stop-color="#fff"/><stop offset="1" stop-color="#fff" stop-opacity=".4"/></linearGradient><clipPath id="a"><path fill="#fff" transform="translate(.625 13)" d="M0 0h35v36H0z"/></clipPath></defs></svg>