<svg width="32" height="32" fill="none" xmlns="http://www.w3.org/2000/svg"><g clip-path="url(#a)" fill-rule="evenodd" clip-rule="evenodd"><path d="M24 32H8a8 8 0 0 1-8-8V8a8 8 0 0 1 8-8h16a8 8 0 0 1 8 8v16a8 8 0 0 1-8 8Z" fill="#199BDF"/><path d="M15 9h9a4.5 4.5 0 0 0 .46-8.977C24.307.015 24.155 0 24 0H8a8 8 0 0 0-8 8v16A15 15 0 0 1 15 9Zm9 7a8 8 0 1 0 8 8V8a8 8 0 0 1-8 8Z" fill="#199BDF"/><path d="M22.54 8.516a1.5 1.5 0 0 1 2.055 1.615l-2.218 14.42a1.5 1.5 0 0 1-2.372.979l-6.541-4.82a1 1 0 0 1-.094-1.532l6.104-5.764a.25.25 0 0 0-.308-.391l-8.07 5.262a3 3 0 0 1-2.366.398l-3.786-.947a1 1 0 0 1-.14-1.894L22.54 8.516Z" fill="#fff"/></g><defs><clipPath id="a"><path fill="#fff" d="M0 0h32v32H0z"/></clipPath></defs></svg>