<svg width="32" height="32" fill="none" xmlns="http://www.w3.org/2000/svg"><g clip-path="url(#a)" fill="#fff"><path d="m17.07 15.454 7.201 10.3h-2.955l-5.876-8.405-.863-1.235-6.865-9.819h2.956l5.54 7.925.862 1.234Z"/><path d="M28.542 0H3.458A3.458 3.458 0 0 0 0 3.458v25.084A3.458 3.458 0 0 0 3.458 32h25.084A3.458 3.458 0 0 0 32 28.542V3.458A3.458 3.458 0 0 0 28.542 0Zm-8.131 27.137-5.947-8.655-7.445 8.655H5.095l8.515-9.898L5.095 4.847h6.494l5.631 8.195 7.05-8.195h1.924l-8.12 9.438 8.831 12.852h-6.494Z"/></g><defs><clipPath id="a"><rect width="32" height="32" rx="7" fill="#fff"/></clipPath></defs></svg>